<svg viewBox="0 0 32 32" xmlns="http://www.w3.org/2000/svg"><g data-name="14. Delivery Truck"><path d="M7 5h6v3.88A1.12 1.12 0 0 1 11.88 10H8.12A1.12 1.12 0 0 1 7 8.88V5Z" fill="#000000" class="fill-77acf1"></path><path d="m31.41 17-1.54-1.54-1.69-5.09A2 2 0 0 0 26.28 9H20V7a3 3 0 0 0-3-3H3a3 3 0 0 0-3 3v15a3 3 0 0 0 3 3h1.14a4 4 0 1 0 0-2H3a1 1 0 0 1-1-1V7a1 1 0 0 1 1-1h14a1 1 0 0 1 1 1v16h-3a1 1 0 0 0 0 2h6.14a4 4 0 0 0 7.72 0H30a2 2 0 0 0 2-2v-4.59a2 2 0 0 0-.59-1.41ZM8 22a2 2 0 1 1-2 2 2 2 0 0 1 2-2Zm19.61-7H24v-4h2.28ZM25 26a2 2 0 1 1 2-2 2 2 0 0 1-2 2Zm5-3h-1.14a4 4 0 0 0-7.72 0H20V11h2v5a1 1 0 0 0 1 1h5.59L30 18.41Z" fill="#000000" class="fill-04009a"></path></g></svg>